<svg width="23" height="16" viewBox="0 0 23 16" fill="none" xmlns="http://www.w3.org/2000/svg">
<path d="M21.0675 0C22.1348 0 23.012 0.868317 22.8834 1.92782C22.6398 3.93507 22.0171 5.88398 21.0424 7.6688C19.758 10.0208 17.9033 12.0125 15.6487 13.4611C13.3941 14.9096 10.8117 15.7687 8.13863 15.9594C6.11016 16.1042 4.07875 15.8605 2.15183 15.2478C1.13473 14.9244 0.709567 13.7656 1.15316 12.7949V12.7949C1.59675 11.8242 2.74165 11.4133 3.77044 11.6974C5.09722 12.0637 6.4813 12.2029 7.86358 12.1043C9.89095 11.9596 11.8495 11.3081 13.5595 10.2094C15.2695 9.11074 16.6761 7.60016 17.6503 5.81632C18.3145 4.60007 18.7632 3.28336 18.9815 1.92435C19.1507 0.870576 20.0002 0 21.0675 0V0Z" fill="#F4F5FA"/>
</svg>
